<?xml version="1.0" encoding="UTF-8"?>
<svg id="Layer_2" data-name="Layer 2" xmlns="http://www.w3.org/2000/svg" viewBox="0 0 323.09 57.94">
  <defs>
    <style>
      .cls-1 {
        fill: #09090a;
      }

      .cls-2 {
        fill: #3f1993;
      }
    </style>
  </defs>
  <g id="Layer_1-2" data-name="Layer 1">
    <g>
      <path class="cls-1" d="M54.26,56.73h10.07v-24.93c0-5.48,4.44-9.91,9.91-9.91h6.63v-9.35h-10.07c-9.13,0-16.54,7.4-16.54,16.54v27.65Z"/>
      <rect class="cls-1" x="188.87" y="12.55" width="10.07" height="44.11"/>
      <path class="cls-1" d="M226.89,20.46c4.48,0,8.15,1.76,10.63,4.55l6.47-6.63c-4.23-4.47-10.39-7.35-17.1-7.35-13.02,0-23.57,10.47-23.57,23.41s10.55,23.49,23.57,23.49c6.47,0,12.31-2.56,16.54-6.87l-6.47-6.55c-2.48,2.48-5.83,4-10.07,4-7.51,0-13.5-6.07-13.5-14.06s5.99-13.98,13.5-13.98Z"/>
      <path class="cls-1" d="M119.8,15.27c-3.65-2.54-8.06-4.07-12.83-4.2,0,0,0,0-.01,0-.22,0-.44-.03-.66-.03-.07,0-.14,0-.2.01-.13,0-.25-.01-.38-.01-13.02,0-23.57,10.47-23.57,23.41s10.19,23.1,22.9,23.46c0,0,0,0,.01,0,.22,0,.44.03.66.03.07,0,.14,0,.2-.01.13,0,.25.01.38.01,5.03,0,9.68-1.57,13.5-4.23v2.95h10.07V12.55h-10.07v2.72ZM115.81,44.53l-.02-.03c-2.42,2.42-5.68,3.91-9.76,3.98-3.78-.06-6.97-1.38-9.34-3.52-.02-.02-.05-.05-.07-.07-.26-.24-.51-.5-.75-.76-2.26-2.49-3.65-5.87-3.65-9.7s1.52-7.5,3.99-10.01l.02.03c2.42-2.42,5.68-3.91,9.76-3.98,3.78.06,6.97,1.38,9.34,3.52.02.02.05.04.07.07.26.24.51.5.75.77,2.26,2.49,3.65,5.87,3.65,9.7s-1.52,7.5-3.99,10.01Z"/>
      <path class="cls-1" d="M296.14,15.27c-3.65-2.54-8.06-4.07-12.83-4.2,0,0,0,0-.01,0-.22,0-.44-.03-.66-.03-.07,0-.14,0-.2.01-.13,0-.25-.01-.38-.01-13.02,0-23.57,10.47-23.57,23.41s10.19,23.1,22.9,23.46c0,0,0,0,.01,0,.22,0,.44.03.66.03.07,0,.14,0,.2-.01.13,0,.25.01.38.01,5.03,0,9.68-1.57,13.5-4.23v2.95h10.07V12.55h-10.07v2.72ZM292.15,44.53l-.02-.03c-2.42,2.42-5.68,3.91-9.76,3.98-3.78-.06-6.97-1.38-9.34-3.52-.02-.02-.05-.05-.07-.07-.26-.24-.51-.5-.75-.76-2.26-2.49-3.65-5.87-3.65-9.7s1.52-7.5,3.99-10.01l.02.03c2.42-2.42,5.68-3.91,9.76-3.98,3.78.06,6.97,1.38,9.34,3.52.02.02.05.04.07.07.26.24.51.5.75.77,2.26,2.49,3.65,5.87,3.65,9.7s-1.52,7.5-3.99,10.01Z"/>
      <path class="cls-1" d="M160.55,11.03c-.13,0-.25,0-.38.01-.07,0-.14-.01-.2-.01-.22,0-.44.03-.66.03,0,0,0,0-.01,0-4.77.13-9.18,1.67-12.83,4.2V.04h-10.07v56.62h10.07v-2.95c3.83,2.66,8.48,4.23,13.5,4.23.13,0,.25,0,.38-.01.07,0,.14.01.2.01.22,0,.44-.03.66-.03,0,0,0,0,.01,0,12.71-.36,22.9-10.66,22.9-23.46s-10.55-23.41-23.57-23.41ZM170.41,44.14c-.24.26-.49.52-.75.76-.02.02-.05.05-.07.07-2.36,2.14-5.56,3.46-9.34,3.52-4.09-.07-7.35-1.57-9.76-3.98l-.02.03c-2.47-2.51-3.99-6.03-3.99-10.01s1.39-7.21,3.65-9.7c.24-.26.49-.52.75-.77.02-.02.05-.04.07-.07,2.36-2.14,5.56-3.46,9.34-3.52,4.09.07,7.35,1.57,9.76,3.98l.02-.03c2.47,2.51,3.99,6.03,3.99,10.01s-1.39,7.21-3.65,9.7Z"/>
      <path class="cls-1" d="M193.9,10.04c2.77,0,4.99-2.28,4.99-5.06s-2.22-4.99-4.99-4.99-5.06,2.22-5.06,4.99,2.29,5.06,5.06,5.06Z"/>
      <rect class="cls-1" x="313.02" y="12.55" width="10.07" height="44.11"/>
      <path class="cls-1" d="M318.05,10.04c2.77,0,4.99-2.28,4.99-5.06s-2.22-4.99-4.99-4.99-5.06,2.22-5.06,4.99,2.29,5.06,5.06,5.06Z"/>
      <path class="cls-1" d="M248.17,51.68c0-2.77,2.29-4.99,5.06-4.99s4.99,2.22,4.99,4.99-2.22,5.06-4.99,5.06-5.06-2.28-5.06-5.06Z"/>
      <path class="cls-2" d="M37.66,12.55v2.72c-3.66-2.53-8.07-4.06-12.83-4.2h-.01c-.22-.01-.44-.03-.66-.03-.07,0-.14.01-.2.01-.14-.01-.26-.01-.38-.01C10.55,11.03,0,21.5,0,34.44s10.18,23.1,22.9,23.46c.23,0,.44.03.67.03.07,0,.14-.01.2-.01.12,0,.25.01.38.01,5.02,0,9.68-1.57,13.5-4.23v2.95h10.07V12.55h-10.07ZM32.26,23.23c.32.24.63.49.93.76l.07.07c.26.25.51.5.76.77,1.92,2.13,3.23,4.9,3.55,8.06-6.63-.22-11.97-5.6-12.12-12.26,1.39.14,2.73.46,3.96,1,.66.27,1.27.58,1.84.93.35.2.68.43,1.01.68ZM22.31,20.58c-.22.03-.43.05-.64.09.21-.03.43-.06.64-.09ZM21.05,20.79c-.58.12-1.15.26-1.69.44.54-.18,1.1-.33,1.69-.44ZM14.07,24.43l.02.02c.72-.72,1.51-1.36,2.38-1.9.23-.14.46-.27.7-.4.68-.37,1.42-.67,2.19-.92.93-.3,1.9-.51,2.91-.61-.14,6.65-5.49,12.05-12.12,12.26.34-3.35,1.77-6.28,3.92-8.45ZM18.68,47.51l-.58-.24c-.58-.26-1.13-.54-1.64-.86-.69-.43-1.32-.91-1.92-1.45l-.07-.07c-.27-.24-.52-.5-.76-.76-1.94-2.13-3.23-4.92-3.55-8.08,6.65.2,11.99,5.64,12.12,12.32-1.28-.15-2.49-.44-3.6-.87ZM33.67,44.54l-.02-.03c-.91.91-1.94,1.69-3.08,2.31-.29.16-.6.3-.91.45-.29.13-.59.25-.89.37-1.03.37-2.14.63-3.32.76.1-6.69,5.47-12.12,12.13-12.32-.34,3.35-1.78,6.29-3.92,8.48Z"/>
    </g>
  </g>
</svg>